<?xml version="1.0" encoding="UTF-8" standalone="no"?>
<!-- Generator: Adobe Illustrator 12.0.0, SVG Export Plug-In . SVG Version: 6.00 Build 51448)  -->
<svg
   xmlns:dc="http://purl.org/dc/elements/1.1/"
   xmlns:cc="http://web.resource.org/cc/"
   xmlns:rdf="http://www.w3.org/1999/02/22-rdf-syntax-ns#"
   xmlns:svg="http://www.w3.org/2000/svg"
   xmlns="http://www.w3.org/2000/svg"
   xmlns:sodipodi="http://sodipodi.sourceforge.net/DTD/sodipodi-0.dtd"
   xmlns:inkscape="http://www.inkscape.org/namespaces/inkscape"
   height="136.927"
   id="Layer_1"
   inkscape:version="0.44"
   sodipodi:docbase="/home/jakob/devel/skolesys-qt4/art"
   sodipodi:docname="close.svg"
   sodipodi:version="0.32"
   space="preserve"
   style="overflow:visible;enable-background:new 0 0 136.93 136.927;"
   version="1.1"
   viewBox="0 0 136.93 136.927"
   width="136.93">
  <metadata
     id="metadata18">
    <rdf:RDF>
      <cc:Work
         rdf:about="">
        <dc:title>Tasto 8</dc:title>
        <dc:description />
        <dc:subject>
          <rdf:Bag>
            <rdf:li>unsorted</rdf:li>
          </rdf:Bag>
        </dc:subject>
        <dc:publisher>
          <cc:Agent
             rdf:about="http://www.openclipart.org/">
            <dc:title>Open Clip Art Library</dc:title>
          </cc:Agent>
        </dc:publisher>
        <dc:creator>
          <cc:Agent>
            <dc:title>Architetto Francesco Rollandin</dc:title>
          </cc:Agent>
        </dc:creator>
        <dc:rights>
          <cc:Agent>
            <dc:title>Architetto Francesco Rollandin</dc:title>
          </cc:Agent>
        </dc:rights>
        <dc:date />
        <dc:format>image/svg+xml</dc:format>
        <dc:type
           rdf:resource="http://purl.org/dc/dcmitype/StillImage" />
        <cc:license
           rdf:resource="http://web.resource.org/cc/PublicDomain" />
        <dc:language>en</dc:language>
      </cc:Work>
      <cc:License
         rdf:about="http://web.resource.org/cc/PublicDomain">
        <cc:permits
           rdf:resource="http://web.resource.org/cc/Reproduction" />
        <cc:permits
           rdf:resource="http://web.resource.org/cc/Distribution" />
        <cc:permits
           rdf:resource="http://web.resource.org/cc/DerivativeWorks" />
      </cc:License>
    </rdf:RDF>
  </metadata>
  <defs
     id="defs35" />
  <sodipodi:namedview
     bordercolor="#666666"
     borderopacity="1.0"
     id="base"
     inkscape:current-layer="Layer_1"
     inkscape:cx="68.464996"
     inkscape:cy="68.463501"
     inkscape:pageopacity="0.0"
     inkscape:pageshadow="2"
     inkscape:window-height="579"
     inkscape:window-width="849"
     inkscape:window-x="22"
     inkscape:window-y="29"
     inkscape:zoom="2.6291381"
     pagecolor="#ffffff" />
  <g
     id="g3"
     transform="matrix(0.972223,0,0,0.977778,1.521425,1.521383)">
    <radialGradient
       cx="66.347702"
       cy="21.809099"
       gradientUnits="userSpaceOnUse"
       id="XMLID_2_"
       r="91.945702">
      <stop
         id="stop6"
         offset="0"
         style="stop-color:#F28888" />
      <stop
         id="stop8"
         offset="1"
         style="stop-color:#D82A2A" />
    </radialGradient>
    <path
       d="M 132.99,99.316 C 126.393,92.721 119.801,86.128 113.205,79.533 C 109.917,76.245 106.629,72.956 103.341,69.668 C 101.426,67.753 103.235,67.359 105.066,65.528 C 113.159,57.433 121.254,49.338 129.347,41.245 C 132.044,38.545 135.274,35.996 135.723,31.912 C 136.34,26.268 131.613,22.759 128.072,19.219 C 122.299,13.446 110.746,-3.438 101.049,2.576 C 93.391,7.326 86.929,16.34 80.617,22.652 C 77.138,26.131 73.66,29.609 70.181,33.086 C 68.031,35.236 68.354,34.677 66.185,32.51 C 58.134,24.459 50.081,16.408 42.028,8.357 C 39.7,6.029 37.183,2.765 33.971,1.665 C 27.844,-0.43 23.96,4.135 20.145,7.946 C 14.543,13.548 -1.539,24.544 1.678,33.958 C 2.776,37.171 6.039,39.687 8.366,42.017 C 12.77,46.421 17.173,50.824 21.578,55.229 C 25.226,58.877 28.874,62.525 32.523,66.176 C 34.69,68.343 35.249,68.021 33.099,70.172 C 25.13,78.139 17.163,86.108 9.194,94.076 C 7.042,96.228 4.215,98.411 2.586,101.038 C -1.163,107.08 3.052,111.881 7.109,115.936 C 12.589,121.416 23.014,136.684 31.925,135.708 C 39.996,134.824 48.946,121.645 54.143,116.447 C 58.159,112.435 62.172,108.422 66.186,104.408 C 68.353,102.241 68.031,101.682 70.18,103.833 C 78.425,112.075 86.669,120.318 94.912,128.562 C 97.795,131.445 100.672,135.232 105.016,135.708 C 110.658,136.325 114.166,131.598 117.707,128.058 C 123.649,122.116 142.588,108.906 132.99,99.316"
       id="path10"
       style="fill:url(#XMLID_2_)" />
    <path
       d="M 32.108,5.382 C 34.234,7.512 9.882,29.862 7.021,31.804 C 2.273,35.027 11.877,21.857 12.801,20.845 C 14.289,19.217 29.448,2.722 32.108,5.382"
       id="path12"
       style="fill:#ef5656" />
    <path
       d="M 38.985,73.616 C 41.157,75.796 10.799,103.902 7.789,106.253 C 6.361,107.369 4.086,108.355 5.548,105.605 C 8.089,100.828 12.273,96.665 15.944,92.764 C 17.596,91.01 36.349,70.979 38.985,73.616"
       id="path14"
       style="fill:#ef5656" />
    <path
       d="M 99.911,73.616 C 97.744,75.788 128.095,103.902 131.104,106.253 C 132.533,107.369 134.809,108.355 133.347,105.605 C 130.808,100.828 126.623,96.665 122.953,92.764 C 121.303,91.01 102.548,70.979 99.911,73.616"
       id="path16"
       style="fill:#ef5656" />
    <path
       d="M 32.108,5.382 C 33.949,3.544 68.296,38.657 66.839,40.115 C 65.281,41.677 27.561,9.945 32.108,5.382"
       id="path18"
       style="fill:#ef5656" />
    <path
       d="M 105.076,5.382 C 102.947,7.514 127.3,29.862 130.162,31.804 C 134.908,35.027 125.307,21.857 124.381,20.845 C 122.896,19.219 107.732,2.722 105.076,5.382"
       id="path20"
       style="fill:#ef5656" />
    <path
       d="M 105.076,5.382 C 103.24,3.548 69.136,38.39 70.6,39.855 C 72.179,41.439 109.615,9.929 105.076,5.382"
       id="path22"
       style="fill:#ef5656" />
    <path
       d="M 132.569,31.309 C 130.731,29.471 111.782,50.042 110.169,51.669 C 107.16,54.707 103.159,57.963 101.141,61.817 C 99.582,64.795 106.657,59.978 107.033,59.687 C 110.098,57.313 136.713,35.445 132.569,31.309"
       id="path24"
       style="fill:#b20d0d" />
    <path
       d="M 68.087,95.791 C 66.498,94.197 48.233,113.6 46.596,115.236 C 41.911,119.92 36.924,124.474 32.737,129.627 C 30.417,132.481 31.109,133.646 34.337,131.568 C 37.542,129.508 72.019,99.717 68.087,95.791"
       id="path26"
       style="fill:#b20d0d" />
    <path
       d="M 6.914,31.309 C 8.743,29.476 27.704,50.044 29.313,51.669 C 32.324,54.709 36.321,57.963 38.342,61.817 C 39.902,64.795 32.828,59.978 32.452,59.687 C 29.388,57.316 2.769,35.432 6.914,31.309"
       id="path28"
       style="fill:#b20d0d" />
    <path
       d="M 71.536,95.937 C 73.139,94.33 90.669,113.019 92.225,114.576 C 96.911,119.26 101.897,123.816 106.082,128.966 C 108.399,131.821 107.709,132.984 104.483,130.908 C 101.277,128.847 67.55,99.91 71.536,95.937"
       id="path30"
       style="fill:#b20d0d" />
    <path
       d="M 30.881,0.022 C 23.507,0.022 16.854,9.637 12.172,14.319 C 6.497,19.993 -4.236,27.591 1.789,36.731 C 5.629,42.557 12.162,47.411 17.049,52.298 C 22.436,57.686 27.826,63.069 33.21,68.461 C 24.478,77.182 15.756,85.913 7.029,94.64 C 2.772,98.897 -1.952,103.397 0.838,110.126 C 2.992,115.327 9.412,119.838 13.252,123.678 C 16.95,127.376 20.589,132.177 24.977,135.113 C 31.499,139.478 37.031,135.161 41.54,130.654 C 50.518,121.676 59.502,112.703 68.474,103.72 C 77.196,112.452 85.928,121.174 94.655,129.899 C 98.912,134.154 103.408,138.878 110.14,136.09 C 115.339,133.937 119.851,127.519 123.692,123.678 C 127.389,119.981 132.191,116.343 135.126,111.955 C 139.451,105.493 135.184,99.91 130.668,95.392 C 121.689,86.414 112.716,77.432 103.733,68.46 C 112.455,59.728 121.187,51.004 129.915,42.277 C 134.157,38.035 138.842,33.566 136.127,26.858 C 134.008,21.628 127.537,17.084 123.692,13.238 C 119.991,9.539 116.337,4.69 111.924,1.778 C 105.407,-2.523 99.903,1.765 95.403,6.263 C 86.425,15.241 77.443,24.214 68.471,33.197 C 62.344,27.062 56.211,20.937 50.081,14.805 C 45.346,10.073 38.364,0.018 30.881,0.022 M 24.951,132.175 C 18.232,125.458 -4.776,109.644 5.522,99.346 C 15.818,89.052 26.112,78.755 36.409,68.46 C 29.856,61.908 23.303,55.353 16.748,48.8 C 11.567,43.619 -3.434,33.12 4.826,24.862 C 11.435,18.254 18.047,11.645 24.657,5.037 C 32.964,-3.266 42.385,10.313 47.747,15.673 C 54.638,22.564 61.529,29.455 68.42,36.344 C 68.524,36.448 85.76,19.106 87.046,17.822 C 92.202,12.666 103.642,-3.615 111.99,4.743 C 119.112,10.195 125.195,17.944 131.547,24.291 C 140.217,32.959 126.987,42.004 121.259,47.734 C 114.35,54.643 107.442,61.552 100.532,68.462 C 110.844,78.771 123.269,88.611 132.189,100.119 C 140.432,108.359 125.076,119.095 119.941,124.228 C 114.411,129.755 107.379,139.427 99.357,131.406 C 92.706,124.756 86.056,118.104 79.404,111.454 C 77.256,109.307 69.883,99.114 67.286,101.708 C 60.424,108.57 53.562,115.43 46.701,122.292 C 41.743,127.246 32.726,139.969 24.951,132.175"
       id="path32"
       style="fill:#970f00" />
  </g>
</svg>
